# xmcd
#
# Track frame offsets:
#	150
#	22701
#	40882
#	63333
#	83613
#	103312
#	124488
#	147141
#	168224
#	188205
#	208983
#	229102
#	245186
#	264742
#	283876
#	300994
#
# Disc length: 4318 seconds
#
# Revision: 1
# Processed by: cddbd v1.4PL0 Copyright (c) Steve Scherf et al.
# Submitted via: EasyCDDAExtractor 6.0.0.1
#
DISCID=e710dc10
DTITLE=杜德伟
DYEAR=1900
DGENRE=
TTITLE0=钟爱一生
TTITLE1=发言人
TTITLE2=眼泪在心里流
TTITLE3=是一片海
TTITLE4=发烧
TTITLE5=真的想你
TTITLE6=旧事
TTITLE7=排山倒海
TTITLE8=我们固执的相爱
TTITLE9=她总在某一个地方
TTITLE10=烈日当空
TTITLE11=你有罪的心
TTITLE12=亲爱的别哭
TTITLE13=想念你的爱
TTITLE14=像自在的风
TTITLE15=永远相依
EXTD=
EXTT0=
EXTT1=
EXTT2=
EXTT3=
EXTT4=
EXTT5=
EXTT6=
EXTT7=
EXTT8=
EXTT9=
EXTT10=
EXTT11=
EXTT12=
EXTT13=
EXTT14=
EXTT15=
PLAYORDER=
